<?xml version="1.0" standalone="no"?>
<!DOCTYPE svg PUBLIC "-//W3C//DTD SVG 20010904//EN"
 "http://www.w3.org/TR/2001/REC-SVG-20010904/DTD/svg10.dtd">
<svg version="1.0" xmlns="http://www.w3.org/2000/svg"
 width="700.000000pt" height="700.000000pt" viewBox="0 0 700.000000 700.000000"
 preserveAspectRatio="xMidYMid meet">
<metadata>
Created by potrace 1.14, written by Peter Selinger 2001-2017
</metadata>
<g transform="translate(0.000000,700.000000) scale(0.100000,-0.100000)"
fill="#000000" stroke="none">
<path d="M1750 6565 l0 -435 -437 -2 -438 -3 -3 -877 -2 -878 440 0 440 0 0
-435 0 -435 -875 0 -875 0 0 -875 0 -875 435 0 435 0 0 -435 0 -435 -435 0
-435 0 0 -440 0 -440 440 0 440 0 0 435 0 435 435 0 435 0 0 -435 0 -435 1750
0 1750 0 0 435 0 435 435 0 435 0 0 -435 0 -435 440 0 440 0 0 440 0 440 -435
0 -435 0 0 435 0 435 435 0 435 0 0 875 0 875 -875 0 -875 0 0 435 0 435 440
0 440 0 -2 878 -3 877 -437 3 -438 2 0 435 0 435 -1750 0 -1750 0 0 -435z
m870 -880 l0 -435 -435 0 -435 0 0 435 0 435 435 0 435 0 0 -435z m2630 0 l0
-435 -435 0 -435 0 0 435 0 435 435 0 435 0 0 -435z m-880 -2620 l0 -2185
-870 0 -870 0 0 2185 0 2185 870 0 870 0 0 -2185z m-2620 -880 l0 -435 -435 0
-435 0 0 435 0 435 435 0 435 0 0 -435z m4370 0 l0 -435 -435 0 -435 0 0 435
0 435 435 0 435 0 0 -435z"/>
</g>
</svg>
